<mxfile host="app.diagrams.net" modified="2021-02-11T18:49:31.221Z" agent="5.0 (Windows NT 10.0; Win64; x64) AppleWebKit/537.36 (KHTML, like Gecko) Chrome/88.0.4324.146 Safari/537.36" etag="aBhR74k8C8-keyj2389W" version="14.3.1" type="github">
  <diagram id="xIRPZ8Pbd2Wsqm4HmmTC" name="Page-1">
    <mxGraphModel dx="1038" dy="580" grid="1" gridSize="10" guides="1" tooltips="1" connect="1" arrows="1" fold="1" page="1" pageScale="1" pageWidth="827" pageHeight="1169" math="0" shadow="0">
      <root>
        <mxCell id="0" />
        <mxCell id="1" parent="0" />
        <mxCell id="Ibq_KJulDlWlrVnch7rc-1" value="Functional Input" style="rounded=0;whiteSpace=wrap;html=1;" vertex="1" parent="1">
          <mxGeometry x="80" y="90" width="120" height="60" as="geometry" />
        </mxCell>
        <mxCell id="Ibq_KJulDlWlrVnch7rc-10" style="edgeStyle=orthogonalEdgeStyle;rounded=0;orthogonalLoop=1;jettySize=auto;html=1;" edge="1" parent="1" target="Ibq_KJulDlWlrVnch7rc-4">
          <mxGeometry relative="1" as="geometry">
            <mxPoint x="210" y="240" as="sourcePoint" />
          </mxGeometry>
        </mxCell>
        <mxCell id="Ibq_KJulDlWlrVnch7rc-13" style="edgeStyle=orthogonalEdgeStyle;rounded=0;orthogonalLoop=1;jettySize=auto;html=1;exitX=0.5;exitY=1;exitDx=0;exitDy=0;entryX=0.99;entryY=0.653;entryDx=0;entryDy=0;entryPerimeter=0;" edge="1" parent="1" source="Ibq_KJulDlWlrVnch7rc-4" target="Ibq_KJulDlWlrVnch7rc-7">
          <mxGeometry relative="1" as="geometry" />
        </mxCell>
        <mxCell id="Ibq_KJulDlWlrVnch7rc-4" value="Processor" style="whiteSpace=wrap;html=1;aspect=fixed;" vertex="1" parent="1">
          <mxGeometry x="380" y="280" width="80" height="80" as="geometry" />
        </mxCell>
        <mxCell id="Ibq_KJulDlWlrVnch7rc-14" style="edgeStyle=orthogonalEdgeStyle;rounded=0;orthogonalLoop=1;jettySize=auto;html=1;exitX=0.5;exitY=1;exitDx=0;exitDy=0;entryX=1;entryY=0.5;entryDx=0;entryDy=0;" edge="1" parent="1" source="Ibq_KJulDlWlrVnch7rc-5" target="Ibq_KJulDlWlrVnch7rc-4">
          <mxGeometry relative="1" as="geometry" />
        </mxCell>
        <mxCell id="Ibq_KJulDlWlrVnch7rc-5" value="Number Input" style="whiteSpace=wrap;html=1;aspect=fixed;" vertex="1" parent="1">
          <mxGeometry x="590" y="100" width="80" height="80" as="geometry" />
        </mxCell>
        <mxCell id="Ibq_KJulDlWlrVnch7rc-15" style="edgeStyle=orthogonalEdgeStyle;rounded=0;orthogonalLoop=1;jettySize=auto;html=1;exitX=0;exitY=0.5;exitDx=0;exitDy=0;entryX=1;entryY=0.75;entryDx=0;entryDy=0;" edge="1" parent="1" source="Ibq_KJulDlWlrVnch7rc-6" target="Ibq_KJulDlWlrVnch7rc-4">
          <mxGeometry relative="1" as="geometry" />
        </mxCell>
        <mxCell id="Ibq_KJulDlWlrVnch7rc-6" value="Error" style="whiteSpace=wrap;html=1;aspect=fixed;" vertex="1" parent="1">
          <mxGeometry x="610" y="350" width="80" height="80" as="geometry" />
        </mxCell>
        <mxCell id="Ibq_KJulDlWlrVnch7rc-7" value="Result" style="whiteSpace=wrap;html=1;aspect=fixed;" vertex="1" parent="1">
          <mxGeometry x="90" y="390" width="80" height="80" as="geometry" />
        </mxCell>
        <mxCell id="Ibq_KJulDlWlrVnch7rc-17" value="Area formula&lt;br&gt;circle:&amp;nbsp;&amp;nbsp;Ï€.r.r&lt;br&gt;rectangle: lxb&lt;br&gt;square: sxs&lt;br&gt;&lt;div&gt;&lt;span&gt;BMI formula:&lt;/span&gt;&lt;/div&gt;weight/(height)&lt;sup&gt;2&lt;/sup&gt;" style="whiteSpace=wrap;html=1;aspect=fixed;align=center;" vertex="1" parent="1">
          <mxGeometry x="40" y="150" width="180" height="180" as="geometry" />
        </mxCell>
      </root>
    </mxGraphModel>
  </diagram>
</mxfile>
